<?xml version="1.0" encoding="utf-8"?>
<svg xmlns="http://www.w3.org/2000/svg" xmlns:xlink="http://www.w3.org/1999/xlink" version="1.2" preserveAspectRatio="xMidYMin meet" viewBox="-45 -15.625 390 187.5" data-sitelen-sentence=""><style>ellipse,polygon,polyline,rect,circle,line,path{stroke-width:2;stroke:black;vector-effect:non-scaling-stroke} .filler{stroke:none;}</style><svg width="300" height="156.25" viewBox="0 0 100 100" y="0" preserveAspectRatio="none" filter="" style="overflow: visible;"><svg viewBox="-1 19 102 102" preserveAspectRatio="none" height="36" width="100" x="0" y="64" style="overflow: visible;"><use xmlns:xlink="http://www.w3.org/1999/xlink" xlink:href="#tp-wg-period" transform="matrix(1.2,0,0,1.2,-10,-10)" height="100" width="100" x="0" y="0"></use></svg><use xmlns:xlink="http://www.w3.org/1999/xlink" xlink:href="#tp-c-e" transform="matrix(1.2,0,0,1.104,-16.66666666666667,-3.328000000000003)" height="64" width="33.333333333333336" x="66.66666666666667" y="0"></use><rect transform="matrix(1.056,0,0,1.056,-2.8000000000000043,-1.7920000000000016)" height="64" width="33.333333333333336" x="33.333333333333336" y="0" rx="4.734848484848484" ry="9.09090909090909" style="fill: rgb(255, 255, 255);"></rect><svg viewBox="-1 -1 102 102" preserveAspectRatio="none" height="64" width="33.333333333333336" x="0" y="0" style="overflow: visible;"><use xmlns:xlink="http://www.w3.org/1999/xlink" xlink:href="#tp-wg-ale" transform="matrix(1.2,0,0,1.2,-10,-10)" height="100" width="100" x="0" y="0"></use></svg><svg viewBox="-16 -16 132 132" preserveAspectRatio="none" height="64" width="33.333333333333336" x="33.333333333333336" y="0" style="overflow: visible;"><use xmlns:xlink="http://www.w3.org/1999/xlink" xlink:href="#tp-wg-jo" transform="matrix(1.2,0,0,1.2,-10,-10)" height="100" width="100" x="0" y="0"></use></svg><svg viewBox="-12 -22 144 144" preserveAspectRatio="none" height="64" width="33.333333333333336" x="66.66666666666667" y="0" style="overflow: visible;"><use xmlns:xlink="http://www.w3.org/1999/xlink" xlink:href="#tp-wg-tenpo" transform="matrix(1.2,0,0,1.2,-10,-10)" height="100" width="100" x="0" y="0"></use></svg></svg><symbol viewBox="-2 -2 269 38" preserveAspectRatio="none" id="tp-wg-period">
        <g id="period" fill="#FFF" stroke-miterlimit="10">
            <path d="M262.707 22.562c0 5.074-3.526 9.188-7.875 9.188H10.375c-4.35 0-7.875-4.113-7.875-9.188 0-5.074 3.526-9.188 7.875-9.188h244.457c4.35 0 7.875 4.114 7.875 9.188z"></path>
            <path d="M262.707 11.688c0 5.074-3.526 9.188-7.875 9.188H10.375c-4.35 0-7.875-4.113-7.875-9.188S6.026 2.5 10.375 2.5h244.457c4.35 0 7.875 4.113 7.875 9.188z"></path>
        </g>
    </symbol><symbol viewBox="-2 -2 128.997 129" preserveAspectRatio="none" id="tp-c-e">
        <g id="ale" fill="#FFF" stroke-miterlimit="10">
            <path d="M101.58 93c10.355 0 18.75 6.604 18.75 14.75s-8.395 14.75-18.75 14.75H76.496"></path>
            <path d="M102.58 73.75c10.355 0 18.75 6.604 18.75 14.75s-8.395 14.75-18.75 14.75H77.497"></path>
            <path d="M102.58 54.5c10.355 0 18.75 6.604 18.75 14.75S112.936 84 102.58 84H77.497"></path>
            <path d="M102.58 35.25c10.355 0 18.75 6.604 18.75 14.75s-8.395 14.75-18.75 14.75H77.497"></path>
            <path d="M69.162 122.5h18.335c8.284 0 15-6.716 15-15v-30 10-30c0-6.5 8.483-12.684 9.915-14.116 1.432-1.432 10.085-5.884 10.085-16.05V17.5c0-8.284-6.716-15-15-15H32.5c-16.57 0-30 13.43-30 30v60c0 16.57 13.43 30 30 30h40.33"></path>
        </g>
    </symbol><symbol viewBox="-2 -2 134.009 134.009" preserveAspectRatio="none" id="tp-wg-ale">
        <g id="aeali" stroke-miterlimit="10">
            <path d="M122.5 97.51c0 16.568-13.43 30-30 30h-60c-16.57 0-30-13.432-30-30v-60c0-16.57 13.43-30 30-30h60c16.57 0 30 13.43 30 30v60z" fill="#FFF"></path>
            <path d="M112.908 31.66c-19.936 28.16-52.46 66.184-52.46 66.184-7.81 7.81-20.474 7.81-28.284 0-7.81-7.81-7.81-20.474 0-28.284 0 0 35.89-30.697 63.756-50.727 15.65-11.25 27.3-1.737 16.988 12.826z" fill="#FFF"></path>
            <path fill="none" stroke-width="4.5" stroke-linecap="round" stroke-linejoin="round" d="M46.56 83.447l56.923-56.922"></path>
            <circle cx="107.5" cy="22.509" r="20" fill="#FFF" stroke-width="5.017"></circle>
        </g>
    </symbol><symbol viewBox="-2 -2 129 129.25" preserveAspectRatio="none" id="tp-wg-jo">
        <g id="awjo" stroke-miterlimit="10">
            <path d="M122.5 73.25c0 29.27-26.863 49.5-60 49.5s-60-20.23-60-49.5-.25-53 60-53c60 0 60 23.73 60 53z" fill="#FFF"></path>
            <path d="M33.5 102.25H82c5.247 0 9.5-3.936 9.5-8.792s-4.253-8.792-9.5-8.792H45.75c-5.247 0-9.5-3.936-9.5-8.792s4.253-8.792 9.5-8.792H82c5.247 0 9.5-3.936 9.5-8.792s-4.253-8.792-9.5-8.792H33.5" fill="none" stroke-linecap="round" stroke-linejoin="round"></path>
            <path d="M39.874 34V11.75a9.25 9.25 0 0 1 9.25-9.25 9.25 9.25 0 0 1 9.25 9.25V34m8.252 0V11.75a9.25 9.25 0 0 1 9.25-9.25 9.25 9.25 0 0 1 9.25 9.25V34" fill="#FFF" stroke-linecap="round" stroke-linejoin="round"></path>
        </g>
    </symbol><symbol viewBox="-2 -2 129 129" preserveAspectRatio="none" id="tp-wg-tenpo">
        <g id="jftenpo" stroke-miterlimit="10">
            <path d="M122.5 92.5c0 16.57-13.43 30-30 30h-60c-16.57 0-30-13.43-30-30v-60c0-16.57 13.43-30 30-30h60c16.57 0 30 13.43 30 30v60z" fill="#FFF"></path>
            <path d="M2.5 47.625H14c8.215 0 14.875 6.66 14.875 14.875S22.215 77.375 14 77.375H2.5M77.375 2.5V14c0 8.215-6.66 14.875-14.875 14.875S47.625 22.215 47.625 14V2.5M122.5 77.375H111c-8.215 0-14.875-6.66-14.875-14.875s6.66-14.875 14.875-14.875h11.5M47.625 122.5V111c0-8.215 6.66-14.875 14.875-14.875s14.875 6.66 14.875 14.875v11.5" fill="none"></path>
            <circle cx="62.5" cy="62.5" r="18.5" fill="#FFF"></circle>
        </g>
    </symbol></svg>